<svg width="151" height="18" viewBox="0 0 151 18" fill="none" xmlns="http://www.w3.org/2000/svg">
<path opacity="0.7" d="M0.216 3.514H1.944L4.212 11.524L6.552 3.514H8.622L10.98 11.524L13.212 3.514H14.958L12.006 13H9.918L7.578 5.314L5.238 13H3.168L0.216 3.514ZM17.5639 8.824C17.5999 9.244 17.6839 9.634 17.8159 9.994C17.9599 10.342 18.1519 10.648 18.3919 10.912C18.6319 11.176 18.9259 11.386 19.2739 11.542C19.6339 11.686 20.0479 11.758 20.5159 11.758C20.7439 11.758 20.9779 11.74 21.2179 11.704C21.4699 11.656 21.7039 11.584 21.9199 11.488C22.1359 11.38 22.3279 11.242 22.4959 11.074C22.6639 10.906 22.7899 10.702 22.8739 10.462H24.4399C24.3319 10.918 24.1459 11.314 23.8819 11.65C23.6299 11.986 23.3239 12.262 22.9639 12.478C22.6159 12.694 22.2259 12.856 21.7939 12.964C21.3619 13.06 20.9239 13.108 20.4799 13.108C19.7239 13.108 19.0639 12.988 18.4999 12.748C17.9479 12.508 17.4859 12.178 17.1139 11.758C16.7419 11.326 16.4659 10.816 16.2859 10.228C16.1059 9.628 16.0159 8.974 16.0159 8.266C16.0159 7.558 16.1119 6.91 16.3039 6.322C16.5079 5.722 16.7959 5.206 17.1679 4.774C17.5399 4.342 17.9959 4.006 18.5359 3.766C19.0759 3.526 19.7179 3.406 20.4619 3.406C21.2179 3.406 21.8719 3.556 22.4239 3.856C22.9759 4.156 23.4199 4.552 23.7559 5.044C24.0919 5.524 24.3259 6.046 24.4579 6.61C24.6019 7.174 24.6619 7.696 24.6379 8.176C24.6379 8.284 24.6319 8.392 24.6199 8.5C24.6199 8.608 24.6139 8.716 24.6019 8.824H17.5639ZM23.0899 7.492C23.0659 6.688 22.8139 6.034 22.3339 5.53C21.8539 5.026 21.2119 4.774 20.4079 4.774C19.9639 4.774 19.5739 4.846 19.2379 4.99C18.9019 5.134 18.6199 5.332 18.3919 5.584C18.1639 5.836 17.9839 6.13 17.8519 6.466C17.7199 6.79 17.6359 7.132 17.5999 7.492H23.0899ZM26.6943 13V0.274H28.2243V4.918C28.5363 4.438 28.9803 4.066 29.5563 3.802C30.1443 3.526 30.7443 3.394 31.3563 3.406C32.0763 3.406 32.6943 3.532 33.2103 3.784C33.7383 4.036 34.1703 4.378 34.5063 4.81C34.8543 5.242 35.1063 5.758 35.2623 6.358C35.4303 6.946 35.5143 7.582 35.5143 8.266C35.5143 8.95 35.4303 9.586 35.2623 10.174C35.1063 10.75 34.8543 11.254 34.5063 11.686C34.1583 12.118 33.7143 12.46 33.1743 12.712C32.6463 12.964 32.0163 13.096 31.2843 13.108H31.0863C30.4383 13.108 29.8743 12.994 29.3943 12.766C28.9263 12.538 28.5363 12.232 28.2243 11.848L28.1523 13H26.6943ZM31.1583 11.758C31.6743 11.758 32.1063 11.668 32.4543 11.488C32.8143 11.296 33.1023 11.044 33.3183 10.732C33.5463 10.408 33.7083 10.036 33.8043 9.616C33.9123 9.196 33.9723 8.746 33.9843 8.266C33.9843 7.786 33.9303 7.336 33.8223 6.916C33.7263 6.484 33.5643 6.112 33.3363 5.8C33.1083 5.488 32.8083 5.242 32.4363 5.062C32.0763 4.87 31.6383 4.774 31.1223 4.774C30.8343 4.774 30.5523 4.822 30.2763 4.918C30.0003 5.014 29.7543 5.146 29.5383 5.314C29.3223 5.47 29.1303 5.65 28.9623 5.854C28.8063 6.058 28.6743 6.274 28.5663 6.502C28.4343 6.778 28.3383 7.072 28.2783 7.384C28.2183 7.696 28.1883 7.996 28.1883 8.284C28.1883 8.596 28.2063 8.92 28.2423 9.256C28.2903 9.58 28.3863 9.88 28.5303 10.156C28.7463 10.612 29.0763 10.996 29.5203 11.308C29.9643 11.608 30.5103 11.758 31.1583 11.758ZM40.9416 4.774C40.7256 4.774 40.5036 4.792 40.2756 4.828C40.0596 4.852 39.8436 4.912 39.6276 5.008C39.4236 5.092 39.2436 5.224 39.0876 5.404C38.9436 5.572 38.8656 5.8 38.8536 6.088C38.8536 6.496 39.0036 6.802 39.3036 7.006C39.6156 7.21 40.0176 7.36 40.5096 7.456C40.7136 7.504 40.9356 7.552 41.1756 7.6C41.4156 7.636 41.6496 7.678 41.8776 7.726C42.1176 7.762 42.3396 7.804 42.5436 7.852C42.7596 7.9 42.9396 7.948 43.0836 7.996C44.2356 8.356 44.8116 9.13 44.8116 10.318C44.7996 10.894 44.6736 11.362 44.4336 11.722C44.2056 12.07 43.9116 12.346 43.5516 12.55C43.2036 12.754 42.8016 12.898 42.3456 12.982C41.9016 13.066 41.4576 13.108 41.0136 13.108C40.5816 13.108 40.1436 13.066 39.6996 12.982C39.2556 12.898 38.8476 12.754 38.4756 12.55C38.1156 12.334 37.8036 12.058 37.5396 11.722C37.2876 11.374 37.1256 10.942 37.0536 10.426H38.6016C38.6976 10.714 38.8476 10.942 39.0516 11.11C39.2556 11.278 39.4716 11.41 39.6996 11.506C39.9396 11.602 40.1616 11.668 40.3656 11.704C40.5816 11.74 40.8216 11.758 41.0856 11.758C41.2776 11.758 41.4996 11.746 41.7516 11.722C42.0036 11.698 42.2436 11.644 42.4716 11.56C42.6996 11.464 42.8916 11.326 43.0476 11.146C43.2036 10.966 43.2816 10.714 43.2816 10.39C43.2816 10.03 43.1616 9.76 42.9216 9.58C42.6936 9.4 42.3756 9.268 41.9676 9.184C41.6796 9.124 41.3796 9.07 41.0676 9.022C40.7676 8.962 40.4616 8.902 40.1496 8.842C39.8496 8.77 39.5556 8.692 39.2676 8.608C38.9796 8.512 38.7096 8.386 38.4576 8.23C38.1216 8.026 37.8516 7.75 37.6476 7.402C37.4436 7.054 37.3416 6.628 37.3416 6.124C37.3656 5.596 37.4856 5.164 37.7016 4.828C37.9176 4.48 38.1936 4.198 38.5296 3.982C38.8896 3.766 39.2736 3.616 39.6816 3.532C40.0896 3.448 40.5216 3.406 40.9776 3.406C41.9496 3.406 42.7236 3.616 43.2996 4.036C43.6476 4.276 43.9176 4.564 44.1096 4.9C44.3016 5.236 44.4216 5.59 44.4696 5.962H43.0476C42.9636 5.614 42.7356 5.332 42.3636 5.116C41.9916 4.9 41.5176 4.786 40.9416 4.774ZM47.5978 0.0399995C47.8858 0.0399995 48.1318 0.135999 48.3358 0.327999C48.5398 0.508 48.6418 0.748 48.6418 1.048C48.6418 1.348 48.5398 1.594 48.3358 1.786C48.1318 1.978 47.8858 2.074 47.5978 2.074C47.2978 2.074 47.0518 1.978 46.8598 1.786C46.6678 1.594 46.5718 1.348 46.5718 1.048C46.5718 0.748 46.6678 0.508 46.8598 0.327999C47.0518 0.135999 47.2978 0.0399995 47.5978 0.0399995ZM46.8418 13V3.514H48.3718V13H46.8418ZM53.3109 3.514H56.2269V4.864H53.3109V9.796C53.3109 10.072 53.3229 10.33 53.3469 10.57C53.3829 10.798 53.4429 11.002 53.5269 11.182C53.6229 11.35 53.7549 11.488 53.9229 11.596C54.1029 11.692 54.3429 11.746 54.6429 11.758C54.9189 11.758 55.1589 11.71 55.3629 11.614C55.5789 11.518 55.7589 11.404 55.9029 11.272L56.5689 12.388C56.2569 12.652 55.9329 12.838 55.5969 12.946C55.2609 13.054 54.8889 13.108 54.4809 13.108C53.9649 13.108 53.5329 13.036 53.1849 12.892C52.8369 12.736 52.5429 12.514 52.3029 12.226C52.0989 11.95 51.9609 11.626 51.8889 11.254C51.8169 10.882 51.7809 10.462 51.7809 9.994V4.864H50.2329V3.514H51.7809V0.669999H53.3109V3.514ZM59.2417 8.824C59.2777 9.244 59.3617 9.634 59.4937 9.994C59.6377 10.342 59.8297 10.648 60.0697 10.912C60.3097 11.176 60.6037 11.386 60.9517 11.542C61.3117 11.686 61.7257 11.758 62.1937 11.758C62.4217 11.758 62.6557 11.74 62.8957 11.704C63.1477 11.656 63.3817 11.584 63.5977 11.488C63.8137 11.38 64.0057 11.242 64.1737 11.074C64.3417 10.906 64.4677 10.702 64.5517 10.462H66.1177C66.0097 10.918 65.8237 11.314 65.5597 11.65C65.3077 11.986 65.0017 12.262 64.6417 12.478C64.2937 12.694 63.9037 12.856 63.4717 12.964C63.0397 13.06 62.6017 13.108 62.1577 13.108C61.4017 13.108 60.7417 12.988 60.1777 12.748C59.6257 12.508 59.1637 12.178 58.7917 11.758C58.4197 11.326 58.1437 10.816 57.9637 10.228C57.7837 9.628 57.6937 8.974 57.6937 8.266C57.6937 7.558 57.7897 6.91 57.9817 6.322C58.1857 5.722 58.4737 5.206 58.8457 4.774C59.2177 4.342 59.6737 4.006 60.2137 3.766C60.7537 3.526 61.3957 3.406 62.1397 3.406C62.8957 3.406 63.5497 3.556 64.1017 3.856C64.6537 4.156 65.0977 4.552 65.4337 5.044C65.7697 5.524 66.0037 6.046 66.1357 6.61C66.2797 7.174 66.3397 7.696 66.3157 8.176C66.3157 8.284 66.3097 8.392 66.2977 8.5C66.2977 8.608 66.2917 8.716 66.2797 8.824H59.2417ZM64.7677 7.492C64.7437 6.688 64.4917 6.034 64.0117 5.53C63.5317 5.026 62.8897 4.774 62.0857 4.774C61.6417 4.774 61.2517 4.846 60.9157 4.99C60.5797 5.134 60.2977 5.332 60.0697 5.584C59.8417 5.836 59.6617 6.13 59.5297 6.466C59.3977 6.79 59.3137 7.132 59.2777 7.492H64.7677ZM74.1056 0.0399995C74.3936 0.0399995 74.6396 0.135999 74.8436 0.327999C75.0476 0.508 75.1496 0.748 75.1496 1.048C75.1496 1.348 75.0476 1.594 74.8436 1.786C74.6396 1.978 74.3936 2.074 74.1056 2.074C73.8056 2.074 73.5596 1.978 73.3676 1.786C73.1756 1.594 73.0796 1.348 73.0796 1.048C73.0796 0.748 73.1756 0.508 73.3676 0.327999C73.5596 0.135999 73.8056 0.0399995 74.1056 0.0399995ZM73.3496 13V3.514H74.8796V13H73.3496ZM80.8088 4.774C80.5928 4.774 80.3708 4.792 80.1428 4.828C79.9268 4.852 79.7108 4.912 79.4948 5.008C79.2908 5.092 79.1108 5.224 78.9548 5.404C78.8108 5.572 78.7328 5.8 78.7208 6.088C78.7208 6.496 78.8708 6.802 79.1708 7.006C79.4828 7.21 79.8848 7.36 80.3768 7.456C80.5808 7.504 80.8028 7.552 81.0428 7.6C81.2828 7.636 81.5168 7.678 81.7448 7.726C81.9848 7.762 82.2068 7.804 82.4108 7.852C82.6268 7.9 82.8068 7.948 82.9508 7.996C84.1028 8.356 84.6788 9.13 84.6788 10.318C84.6668 10.894 84.5408 11.362 84.3008 11.722C84.0728 12.07 83.7788 12.346 83.4188 12.55C83.0708 12.754 82.6688 12.898 82.2128 12.982C81.7688 13.066 81.3248 13.108 80.8808 13.108C80.4488 13.108 80.0108 13.066 79.5668 12.982C79.1228 12.898 78.7148 12.754 78.3428 12.55C77.9828 12.334 77.6708 12.058 77.4067 11.722C77.1548 11.374 76.9928 10.942 76.9208 10.426H78.4688C78.5648 10.714 78.7148 10.942 78.9188 11.11C79.1228 11.278 79.3388 11.41 79.5668 11.506C79.8068 11.602 80.0288 11.668 80.2328 11.704C80.4488 11.74 80.6888 11.758 80.9528 11.758C81.1448 11.758 81.3668 11.746 81.6188 11.722C81.8708 11.698 82.1108 11.644 82.3388 11.56C82.5668 11.464 82.7588 11.326 82.9148 11.146C83.0708 10.966 83.1488 10.714 83.1488 10.39C83.1488 10.03 83.0288 9.76 82.7888 9.58C82.5608 9.4 82.2428 9.268 81.8348 9.184C81.5468 9.124 81.2468 9.07 80.9348 9.022C80.6348 8.962 80.3288 8.902 80.0168 8.842C79.7168 8.77 79.4228 8.692 79.1348 8.608C78.8468 8.512 78.5768 8.386 78.3248 8.23C77.9888 8.026 77.7188 7.75 77.5148 7.402C77.3108 7.054 77.2088 6.628 77.2088 6.124C77.2328 5.596 77.3528 5.164 77.5688 4.828C77.7848 4.48 78.0608 4.198 78.3968 3.982C78.7568 3.766 79.1408 3.616 79.5488 3.532C79.9568 3.448 80.3888 3.406 80.8447 3.406C81.8168 3.406 82.5908 3.616 83.1668 4.036C83.5148 4.276 83.7848 4.564 83.9768 4.9C84.1688 5.236 84.2888 5.59 84.3368 5.962H82.9148C82.8308 5.614 82.6028 5.332 82.2308 5.116C81.8588 4.9 81.3848 4.786 80.8088 4.774ZM95.4845 13.108C94.7285 13.108 94.0745 12.988 93.5225 12.748C92.9705 12.508 92.5145 12.172 92.1545 11.74C91.7945 11.308 91.5245 10.798 91.3445 10.21C91.1645 9.622 91.0745 8.98 91.0745 8.284C91.0745 7.612 91.1705 6.982 91.3625 6.394C91.5545 5.794 91.8365 5.278 92.2085 4.846C92.5805 4.402 93.0485 4.054 93.6125 3.802C94.1765 3.538 94.8605 3.406 95.6645 3.406C96.1445 3.406 96.5705 3.46 96.9425 3.568C97.3145 3.664 97.6625 3.826 97.9865 4.054C98.3225 4.27 98.6105 4.558 98.8505 4.918C99.0905 5.278 99.2645 5.716 99.3725 6.232H97.8065C97.6265 5.704 97.3385 5.326 96.9425 5.098C96.5585 4.87 96.1025 4.762 95.5745 4.774C95.0585 4.774 94.6025 4.876 94.2065 5.08C93.8225 5.272 93.5105 5.53 93.2705 5.854C93.0425 6.178 92.8745 6.556 92.7665 6.988C92.6585 7.408 92.6045 7.84 92.6045 8.284C92.6045 8.752 92.6585 9.196 92.7665 9.616C92.8865 10.036 93.0605 10.408 93.2885 10.732C93.5285 11.044 93.8345 11.296 94.2065 11.488C94.5785 11.668 95.0225 11.758 95.5385 11.758C95.7905 11.758 96.0365 11.734 96.2765 11.686C96.5285 11.638 96.7565 11.56 96.9605 11.452C97.1765 11.332 97.3625 11.176 97.5185 10.984C97.6745 10.792 97.7885 10.558 97.8605 10.282H99.4445C99.3485 10.774 99.1745 11.2 98.9225 11.56C98.6825 11.908 98.3825 12.202 98.0225 12.442C97.6625 12.67 97.2665 12.838 96.8345 12.946C96.4025 13.054 95.9525 13.108 95.4845 13.108ZM105.56 3.406C106.316 3.406 106.97 3.526 107.522 3.766C108.074 4.006 108.536 4.342 108.908 4.774C109.292 5.206 109.574 5.722 109.754 6.322C109.946 6.91 110.042 7.558 110.042 8.266C110.042 8.974 109.946 9.628 109.754 10.228C109.574 10.816 109.292 11.326 108.908 11.758C108.536 12.178 108.068 12.508 107.504 12.748C106.94 12.988 106.28 13.108 105.524 13.108C104.768 13.108 104.108 12.988 103.544 12.748C102.992 12.508 102.524 12.178 102.14 11.758C101.768 11.326 101.486 10.816 101.294 10.228C101.114 9.628 101.024 8.974 101.024 8.266C101.024 7.558 101.114 6.91 101.294 6.322C101.486 5.722 101.768 5.206 102.14 4.774C102.524 4.342 103.004 4.006 103.58 3.766C104.156 3.526 104.816 3.406 105.56 3.406ZM105.524 11.758C106.04 11.758 106.484 11.668 106.856 11.488C107.24 11.308 107.552 11.062 107.792 10.75C108.044 10.426 108.224 10.054 108.332 9.634C108.452 9.214 108.512 8.758 108.512 8.266C108.512 7.786 108.452 7.336 108.332 6.916C108.224 6.484 108.044 6.112 107.792 5.8C107.552 5.476 107.24 5.224 106.856 5.044C106.484 4.864 106.04 4.774 105.524 4.774C105.008 4.774 104.564 4.864 104.192 5.044C103.82 5.224 103.508 5.476 103.256 5.8C103.016 6.112 102.836 6.484 102.716 6.916C102.608 7.336 102.554 7.786 102.554 8.266C102.554 8.758 102.608 9.214 102.716 9.634C102.836 10.054 103.016 10.426 103.256 10.75C103.508 11.062 103.82 11.308 104.192 11.488C104.564 11.668 105.008 11.758 105.524 11.758ZM113.637 4.648C113.937 4.228 114.303 3.916 114.735 3.712C115.179 3.508 115.671 3.406 116.211 3.406C116.871 3.418 117.405 3.562 117.813 3.838C118.221 4.114 118.527 4.48 118.731 4.936C119.055 4.456 119.451 4.084 119.919 3.82C120.399 3.544 120.963 3.406 121.611 3.406C122.127 3.406 122.571 3.496 122.943 3.676C123.315 3.844 123.615 4.084 123.843 4.396C124.071 4.696 124.239 5.05 124.347 5.458C124.455 5.866 124.509 6.31 124.509 6.79V13H122.979V7.564C122.979 7.252 122.961 6.934 122.925 6.61C122.901 6.274 122.829 5.974 122.709 5.71C122.589 5.434 122.409 5.206 122.169 5.026C121.929 4.846 121.605 4.756 121.197 4.756C120.825 4.756 120.495 4.852 120.207 5.044C119.919 5.236 119.691 5.482 119.523 5.782C119.367 6.082 119.253 6.412 119.181 6.772C119.109 7.132 119.073 7.486 119.073 7.834V13H117.543V7.546C117.543 7.246 117.531 6.934 117.507 6.61C117.483 6.274 117.411 5.974 117.291 5.71C117.183 5.434 117.015 5.206 116.787 5.026C116.559 4.846 116.241 4.756 115.833 4.756C115.401 4.756 115.041 4.858 114.753 5.062C114.477 5.254 114.249 5.5 114.069 5.8C113.901 6.1 113.781 6.436 113.709 6.808C113.649 7.168 113.619 7.516 113.619 7.852V13H112.089V3.514H113.565L113.637 4.648ZM127.719 0.0399995C128.007 0.0399995 128.253 0.135999 128.457 0.327999C128.661 0.508 128.763 0.748 128.763 1.048C128.763 1.348 128.661 1.594 128.457 1.786C128.253 1.978 128.007 2.074 127.719 2.074C127.419 2.074 127.173 1.978 126.981 1.786C126.789 1.594 126.693 1.348 126.693 1.048C126.693 0.748 126.789 0.508 126.981 0.327999C127.173 0.135999 127.419 0.0399995 127.719 0.0399995ZM126.963 13V3.514H128.493V13H126.963ZM131.038 13V3.514H132.514L132.586 4.954C132.742 4.69 132.934 4.462 133.162 4.27C133.402 4.078 133.66 3.916 133.936 3.784C134.212 3.652 134.5 3.556 134.8 3.496C135.112 3.436 135.412 3.406 135.7 3.406C136.384 3.406 136.96 3.52 137.428 3.748C137.896 3.964 138.268 4.27 138.544 4.666C138.82 5.05 139.018 5.512 139.138 6.052C139.258 6.58 139.318 7.15 139.318 7.762V13H137.788V8.176C137.788 7.732 137.758 7.306 137.698 6.898C137.65 6.49 137.542 6.13 137.374 5.818C137.218 5.494 136.99 5.236 136.69 5.044C136.39 4.852 135.988 4.756 135.484 4.756C135.004 4.756 134.572 4.876 134.188 5.116C133.804 5.344 133.498 5.614 133.27 5.926C132.994 6.322 132.808 6.76 132.712 7.24C132.616 7.708 132.568 8.182 132.568 8.662V13H131.038ZM150.133 12.928C150.133 14.272 149.773 15.328 149.053 16.096C148.333 16.864 147.247 17.248 145.795 17.248C145.315 17.248 144.853 17.194 144.409 17.086C143.977 16.978 143.581 16.804 143.221 16.564C142.873 16.336 142.573 16.042 142.321 15.682C142.081 15.334 141.913 14.914 141.817 14.422H143.401C143.473 14.698 143.593 14.926 143.761 15.106C143.941 15.298 144.145 15.448 144.373 15.556C144.601 15.676 144.847 15.76 145.111 15.808C145.375 15.856 145.633 15.88 145.885 15.88C146.365 15.88 146.779 15.802 147.127 15.646C147.475 15.502 147.757 15.298 147.973 15.034C148.189 14.77 148.345 14.452 148.441 14.08C148.549 13.72 148.603 13.324 148.603 12.892V11.578C148.291 12.13 147.847 12.526 147.271 12.766C146.695 12.994 146.095 13.108 145.471 13.108C144.751 13.096 144.127 12.97 143.599 12.73C143.071 12.478 142.639 12.136 142.303 11.704C141.967 11.272 141.715 10.768 141.547 10.192C141.391 9.604 141.313 8.968 141.313 8.284C141.313 7.6 141.397 6.964 141.565 6.376C141.733 5.776 141.991 5.26 142.339 4.828C142.687 4.384 143.125 4.036 143.653 3.784C144.181 3.532 144.811 3.406 145.543 3.406C146.095 3.406 146.653 3.508 147.217 3.712C147.781 3.916 148.243 4.246 148.603 4.702L148.675 3.514H150.133V12.928ZM145.669 4.774C145.153 4.774 144.715 4.87 144.355 5.062C143.995 5.242 143.701 5.488 143.473 5.8C143.257 6.112 143.095 6.484 142.987 6.916C142.891 7.336 142.843 7.786 142.843 8.266C142.843 8.794 142.891 9.262 142.987 9.67C143.083 10.066 143.245 10.42 143.473 10.732C143.701 11.044 143.995 11.296 144.355 11.488C144.715 11.668 145.159 11.758 145.687 11.758C146.299 11.758 146.803 11.614 147.199 11.326C147.595 11.038 147.913 10.678 148.153 10.246C148.321 9.946 148.441 9.622 148.513 9.274C148.585 8.914 148.621 8.56 148.621 8.212C148.621 7.78 148.579 7.384 148.495 7.024C148.423 6.664 148.285 6.328 148.081 6.016C147.841 5.668 147.523 5.374 147.127 5.134C146.731 4.894 146.245 4.774 145.669 4.774Z" fill="#1B2025"/>
</svg>
