<svg width="375" height="387" viewBox="0 0 375 387" fill="none" xmlns="http://www.w3.org/2000/svg">
<mask id="mask0_0_18" style="mask-type:alpha" maskUnits="userSpaceOnUse" x="-623" y="-167" width="1632" height="554">
<path d="M148 193.5L142.5 202.5C112.167 247 5.73816 340.062 -61.8618 369.262C-146.362 405.761 -209.862 384.262 -478.362 297.262C-746.862 210.262 -568.362 193.762 -520.362 32.7617C-472.362 -128.239 -290.362 -7.73828 -219.362 -43.2383C-148.362 -78.7383 -54.3619 -89.2383 67.6381 -116.738C189.638 -144.238 244.138 -140.738 678.638 -164.238C1113.14 -187.738 948.638 -59.2379 1000.14 143.262C1051.64 345.762 860.638 296.262 722.638 332.762C612.238 361.962 367.638 260.595 259.138 206.262C258.638 205.929 222.5 187.5 222.5 187.5L213.5 177C213.5 177 209.443 173.588 206 172C203.757 170.965 201.943 170.188 199.5 169.5C197.028 168.804 195.552 168.287 193 168C189.889 167.65 188.129 167.404 185 167.5C181.853 167.597 180.248 167.212 177 168C174.179 168.685 172.393 169.422 169.5 170.5C167.529 171.234 164.5 172.5 164.5 172.5L159.5 176.5L153.5 185L148 193.5Z" fill="black"/>
</mask>
<g mask="url(#mask0_0_18)">
<path d="M26.6611 139.848L35.9891 154.5L45.2731 139.848H52.0491V171H45.7131V149.528L37.3091 162.948H34.4491L26.0451 149.528V171H19.7531V139.848H26.6611ZM65.0198 171H58.6398V139.848H65.0198V171ZM79.3604 159.428H88.4244L83.9364 146.58L79.3604 159.428ZM77.5124 165.06L75.2684 171H68.3164L80.3724 139.848H87.5884L99.4684 171H92.4724L90.3164 165.06H77.5124ZM120.993 139.848H127.901L116.065 171H109.201L97.3653 139.848H104.449L112.765 163.388L120.993 139.848ZM137.68 171H131.3V139.848H137.68V171ZM152.021 159.428H161.085L156.597 146.58L152.021 159.428ZM150.173 165.06L147.929 171H140.977L153.033 139.848H160.249L172.129 171H165.133L162.977 165.06H150.173ZM193.624 165.368H208.892V171H187.288V139.848H193.624V165.368ZM219.793 171H213.413V139.848H219.793V171ZM233.298 139.848L242.626 154.5L251.91 139.848H258.686V171H252.35V149.528L243.946 162.948H241.086L232.682 149.528V171H226.39V139.848H233.298ZM271.657 171H265.277V139.848H271.657V171ZM275.217 145.524V139.848H301.133V145.524H291.365V171H284.985V145.524H275.217ZM326.943 139.848V145.524H311.059V152.784H324.919V158.46H311.059V165.368H326.943V171H304.679V139.848H326.943ZM331.835 171V139.848H343.319C344.815 139.848 346.282 139.98 347.719 140.244C349.156 140.479 350.535 140.948 351.855 141.652C354.202 142.855 355.962 144.629 357.135 146.976C358.338 149.323 358.939 152.153 358.939 155.468C358.939 160.484 357.634 164.327 355.023 166.996C352.442 169.665 348.643 171 343.627 171H331.835ZM343.671 165.368C344.082 165.368 344.522 165.339 344.991 165.28C345.46 165.221 345.93 165.148 346.399 165.06C346.868 164.943 347.308 164.811 347.719 164.664C348.13 164.517 348.482 164.356 348.775 164.18C349.978 163.359 350.872 162.2 351.459 160.704C352.075 159.179 352.383 157.433 352.383 155.468C352.383 153.913 352.207 152.505 351.855 151.244C351.503 149.983 350.96 148.912 350.227 148.032C349.406 147.064 348.35 146.404 347.059 146.052C345.798 145.7 344.551 145.524 343.319 145.524H338.215V165.368H343.671Z" fill="#1B2125"/>
</g>
</svg>
