<svg width="1633" height="474" viewBox="0 0 1633 474" fill="none" xmlns="http://www.w3.org/2000/svg">
<mask id="mask0_0_5" style="mask-type:alpha" maskUnits="userSpaceOnUse" x="0" y="-80" width="1633" height="555">
<path d="M743 281.5L737.5 287C707.167 331.5 629.6 427.8 562 457C477.5 493.5 414 472 145.5 385C-123 298 55.4999 281.5 103.5 120.5C151.5 -40.5003 333.5 80 404.5 44.5C475.5 9 569.5 -1.5 691.5 -29C813.5 -56.5 868 -52.9997 1302.5 -76.4997C1737 -99.9997 1572.5 28.5003 1624 231C1675.5 433.5 1484.5 384 1346.5 420.5C1236.1 449.7 991.5 348.334 883 294C882.5 293.667 880.3 291.4 875.5 285C870.7 278.6 857.167 270 851 266.5L847 265C846.667 265.334 847.457 264.25 841.5 261.5C835 258.5 822 256.167 817 256L815.5 255.5H800L768.5 264L762.5 266.5L755 271L748 276.5L743 281.5Z" fill="black"/>
</mask>
<g mask="url(#mask0_0_5)">
<path d="M248.208 179.552L281.28 231.5L314.196 179.552H338.22V290H315.756V213.872L285.96 261.452H275.82L246.024 213.872V290H223.716V179.552H248.208ZM384.207 290H361.587V179.552H384.207V290ZM435.051 248.972H467.187L451.275 203.42L435.051 248.972ZM428.499 268.94L420.543 290H395.895L438.639 179.552H464.223L506.343 290H481.539L473.895 268.94H428.499ZM582.658 179.552H607.15L565.186 290H540.85L498.886 179.552H524.002L553.486 263.012L582.658 179.552ZM641.82 290H619.2V179.552H641.82V290ZM692.664 248.972H724.8L708.888 203.42L692.664 248.972ZM686.112 268.94L678.156 290H653.508L696.252 179.552H721.836L763.956 290H739.152L731.508 268.94H686.112ZM840.168 270.032H894.3V290H817.704V179.552H840.168V270.032ZM932.949 290H910.329V179.552H932.949V290ZM980.829 179.552L1013.9 231.5L1046.82 179.552H1070.84V290H1048.38V213.872L1018.58 261.452H1008.44L978.645 213.872V290H956.337V179.552H980.829ZM1116.83 290H1094.21V179.552H1116.83V290ZM1129.45 199.676V179.552H1221.34V199.676H1186.7V290H1164.08V199.676H1129.45ZM1312.84 179.552V199.676H1256.53V225.416H1305.67V245.54H1256.53V270.032H1312.84V290H1233.91V179.552H1312.84ZM1330.19 290V179.552H1370.9C1376.21 179.552 1381.41 180.02 1386.5 180.956C1391.6 181.788 1396.49 183.452 1401.17 185.948C1409.49 190.212 1415.73 196.504 1419.89 204.824C1424.15 213.144 1426.28 223.18 1426.28 234.932C1426.28 252.716 1421.66 266.34 1412.4 275.804C1403.25 285.268 1389.78 290 1372 290H1330.19ZM1372.15 270.032C1373.61 270.032 1375.17 269.928 1376.83 269.72C1378.5 269.512 1380.16 269.252 1381.82 268.94C1383.49 268.524 1385.05 268.056 1386.5 267.536C1387.96 267.016 1389.21 266.444 1390.25 265.82C1394.51 262.908 1397.68 258.8 1399.76 253.496C1401.95 248.088 1403.04 241.9 1403.04 234.932C1403.04 229.42 1402.42 224.428 1401.17 219.956C1399.92 215.484 1398 211.688 1395.4 208.568C1392.48 205.136 1388.74 202.796 1384.16 201.548C1379.69 200.3 1375.27 199.676 1370.9 199.676H1352.81V270.032H1372.15Z" fill="#1B2125"/>
</g>
</svg>
